<svg id="Layer_1" data-name="Layer 1" xmlns="http://www.w3.org/2000/svg" viewBox="0 0 792 792"><title>shield</title><path fill="black" stroke="white" stroke-width="10" d="M392,.9h8.8c.39,1,.36,2.36,1.25,2.94,77.93,50.9,165,87,270.35,92.73,39.2,2.14,78.51,3.1,119.06,4.64.24,3.45.66,6.64.66,9.83,0,124.16.25,248.32-.38,372.48-.09,16.89-2.94,34-7.25,50.61-15.24,58.73-64.27,100.56-127,133.18-67.3,35-137.52,66.74-206.34,100.05-17,8.23-33.55,17-50.31,25.54H392q-32.61-16.24-65.24-32.46C256.57,725.76,184.52,693,116.53,656,35.05,611.67-.86,549.5.22,473.63c1.7-118.66.45-237.33.45-356V104.69c67.92-6.23,132.62-8.58,195-18.81C271.79,73.41,336.37,42,392,.9Z"/></svg>